<?xml version="1.0" encoding="utf-8"?>
<!-- Generator: Adobe Illustrator 19.0.0, SVG Export Plug-In . SVG Version: 6.00 Build 0)  -->
<svg version="1.1" id="Capa_1" xmlns="http://www.w3.org/2000/svg" xmlns:xlink="http://www.w3.org/1999/xlink" x="0px" y="0px"
	 viewBox="0 0 40 40" style="enable-background:new 0 0 40 40;" xml:space="preserve">
<style type="text/css">
	.st0{fill:#FFFFFF;}
</style>
<path id="XMLID_5903_" class="st0" d="M32.7,11.4c0-0.1-0.1-0.2-0.1-0.3l0,0c-0.6,0-8-0.4-12.6-6.1c0,0,0,0,0,0
	c-4.6,5.7-12,6.1-12.6,6.1l0,0c0,0.1-0.1,0.2-0.1,0.3c-0.5,3-0.4,5.9,0.2,8.7c0.5,2.5,1.4,4.8,2.7,6.7c3.3,5,9.3,7.9,9.8,8.1
	c0,0,0,0,0,0v0l0,0c0,0,0,0,0,0l0,0c0.3-0.1,6.5-3,9.9-8.1c1.3-1.9,2.2-4.3,2.7-6.7C33.1,17.3,33.2,14.4,32.7,11.4z"/>
</svg>
